# xmcd CD database file
#
# Track frame offsets:
#	150
#	33559
#	71305
#	104668
#	215312
#
# Disc length: 3069 seconds
#
# Revision: 0
# Processed by: cddbd v1.5.2PL0 Copyright (c) Steve Scherf et al.
# Submitted via: CDex 1.51
#
DISCID=420bfb05
DTITLE=Lama Gyurmé and Jean Philippe Rykiel - Die Stimme der Stille
DYEAR=1994
DGENRE=New Age
TTITLE0=Hope for Enlightenment
TTITLE1=Guru Rinpoche
TTITLE2=The Tsok Offering
TTITLE3=Calling The Lama From Afar
TTITLE4=Longevity Prayer to Kalu Rinpoche
EXTD=YEAR: 1994
EXTT0=
EXTT1=
EXTT2=
EXTT3=
EXTT4=
PLAYORDER=
